solid OpenSCAD_Model
  facet normal 0 0 1
    outer loop
      vertex 25 41.0067 20
      vertex 1 41 20
      vertex 25 41 20
    endloop
  endfacet
  facet normal 0 0 1
    outer loop
      vertex 1 41 20
      vertex 0.991672 41.0067 20
      vertex 1 1 20
    endloop
  endfacet
  facet normal -0 0 1
    outer loop
      vertex 0.991672 41.0067 20
      vertex 1 41 20
      vertex 25 41.0067 20
    endloop
  endfacet
  facet normal -0 0 1
    outer loop
      vertex 1 1 20
      vertex 25 0.993338 20
      vertex 25 1 20
    endloop
  endfacet
  facet normal 0 0 1
    outer loop
      vertex 1 1 20
      vertex 0.991672 0.993338 20
      vertex 25 0.993338 20
    endloop
  endfacet
  facet normal 0 0 1
    outer loop
      vertex 0.991672 0.993338 20
      vertex 1 1 20
      vertex 0.991672 41.0067 20
    endloop
  endfacet
  facet normal 0 0 -1
    outer loop
      vertex 25 0 0
      vertex 1 1 0
      vertex 25 1 0
    endloop
  endfacet
  facet normal -0 0 -1
    outer loop
      vertex 1 1 0
      vertex 0 0 0
      vertex 1 41 0
    endloop
  endfacet
  facet normal 0 0 -1
    outer loop
      vertex 0 0 0
      vertex 1 1 0
      vertex 25 0 0
    endloop
  endfacet
  facet normal 0 0 -1
    outer loop
      vertex 1 41 0
      vertex 25 42 0
      vertex 25 41 0
    endloop
  endfacet
  facet normal 0 0 -1
    outer loop
      vertex 1 41 0
      vertex 0 42 0
      vertex 25 42 0
    endloop
  endfacet
  facet normal 0 0 -1
    outer loop
      vertex 0 42 0
      vertex 1 41 0
      vertex 0 0 0
    endloop
  endfacet
  facet normal -1 0 0
    outer loop
      vertex 0 0 0
      vertex 0 42 20
      vertex 0 42 0
    endloop
  endfacet
  facet normal -1 -0 0
    outer loop
      vertex 0 42 20
      vertex 0 0 0
      vertex 0 0 20
    endloop
  endfacet
  facet normal 0 1 -0
    outer loop
      vertex 25 42 0
      vertex 0 42 20
      vertex 25 42 20
    endloop
  endfacet
  facet normal 0 1 0
    outer loop
      vertex 0 42 20
      vertex 25 42 0
      vertex 0 42 0
    endloop
  endfacet
  facet normal 0 -1 0
    outer loop
      vertex 0 0 0
      vertex 25 0 20
      vertex 0 0 20
    endloop
  endfacet
  facet normal 0 -1 -0
    outer loop
      vertex 25 0 20
      vertex 0 0 0
      vertex 25 0 0
    endloop
  endfacet
  facet normal 1 -0 0
    outer loop
      vertex 1 1 20
      vertex 1 41 0
      vertex 1 41 20
    endloop
  endfacet
  facet normal 1 0 0
    outer loop
      vertex 1 41 0
      vertex 1 1 20
      vertex 1 1 0
    endloop
  endfacet
  facet normal 0 -1 0
    outer loop
      vertex 1 41 0
      vertex 25 41 20
      vertex 1 41 20
    endloop
  endfacet
  facet normal 0 -1 -0
    outer loop
      vertex 25 41 20
      vertex 1 41 0
      vertex 25 41 0
    endloop
  endfacet
  facet normal 0 1 -0
    outer loop
      vertex 25 1 0
      vertex 1 1 20
      vertex 25 1 20
    endloop
  endfacet
  facet normal 0 1 0
    outer loop
      vertex 1 1 20
      vertex 25 1 0
      vertex 1 1 0
    endloop
  endfacet
  facet normal 0 0 1
    outer loop
      vertex 25 62 50
      vertex -23.9917 60.9933 50
      vertex 25 60.9933 50
    endloop
  endfacet
  facet normal 0 0 1
    outer loop
      vertex -23.9917 60.9933 50
      vertex -25 62 50
      vertex -23.9917 -18.9933 50
    endloop
  endfacet
  facet normal -0 0 1
    outer loop
      vertex -25 62 50
      vertex -23.9917 60.9933 50
      vertex 25 62 50
    endloop
  endfacet
  facet normal -0 0 1
    outer loop
      vertex -23.9917 -18.9933 50
      vertex 25 -20 50
      vertex 25 -18.9933 50
    endloop
  endfacet
  facet normal 0 0 1
    outer loop
      vertex -23.9917 -18.9933 50
      vertex -25 -20 50
      vertex 25 -20 50
    endloop
  endfacet
  facet normal 0 0 1
    outer loop
      vertex -25 -20 50
      vertex -23.9917 -18.9933 50
      vertex -25 62 50
    endloop
  endfacet
  facet normal 0 -0.83205 -0.5547
    outer loop
      vertex 0 0 20
      vertex 25 -20 50
      vertex -25 -20 50
    endloop
  endfacet
  facet normal 0 -0.83205 -0.5547
    outer loop
      vertex 25 -20 50
      vertex 0 0 20
      vertex 25 0 20
    endloop
  endfacet
  facet normal -0.768221 0 -0.640184
    outer loop
      vertex 0 0 20
      vertex -25 62 50
      vertex 0 42 20
    endloop
  endfacet
  facet normal -0.768221 -0 -0.640184
    outer loop
      vertex -25 62 50
      vertex 0 0 20
      vertex -25 -20 50
    endloop
  endfacet
  facet normal 0 0.83205 -0.5547
    outer loop
      vertex 0 42 20
      vertex 25 62 50
      vertex 25 42 20
    endloop
  endfacet
  facet normal 0 0.83205 -0.5547
    outer loop
      vertex 25 62 50
      vertex 0 42 20
      vertex -25 62 50
    endloop
  endfacet
  facet normal -0 0.832222 0.554443
    outer loop
      vertex 0.115041 0.135356 21.2878
      vertex 25 -18.9933 50
      vertex 25 0.135356 21.2878
    endloop
  endfacet
  facet normal 0 0.832222 0.554443
    outer loop
      vertex 25 -18.9933 50
      vertex 0.115041 0.135356 21.2878
      vertex -23.9917 -18.9933 50
    endloop
  endfacet
  facet normal 0.000204726 0.832142 0.554562
    outer loop
      vertex -23.9917 -18.9933 50
      vertex 0.115041 0.135356 21.2878
      vertex 0.115041 0.292033 21.0527
    endloop
  endfacet
  facet normal 0 0.832207 0.554465
    outer loop
      vertex 0.991672 0.993338 20
      vertex 0.612302 0.568132 20.6382
      vertex 25 0.568132 20.6382
    endloop
  endfacet
  facet normal -0 0.832207 0.554465
    outer loop
      vertex 0.991672 0.993338 20
      vertex 25 0.568132 20.6382
      vertex 25 0.993338 20
    endloop
  endfacet
  facet normal -0.000125506 0.832242 0.554413
    outer loop
      vertex 0.612302 0.568132 20.6382
      vertex 0.991672 0.993338 20
      vertex 0.612302 0.689841 20.4555
    endloop
  endfacet
  facet normal 0.76843 0 0.639934
    outer loop
      vertex -23.9917 60.9933 50
      vertex 0.115041 0.292033 21.0527
      vertex 0.115041 41.708 21.0527
    endloop
  endfacet
  facet normal 0.76843 0 0.639934
    outer loop
      vertex 0.115041 0.292033 21.0527
      vertex -23.9917 60.9933 50
      vertex -23.9917 -18.9933 50
    endloop
  endfacet
  facet normal 0.768398 0 0.639972
    outer loop
      vertex 0.612302 41.3102 20.4555
      vertex 0.991672 0.993338 20
      vertex 0.991672 41.0067 20
    endloop
  endfacet
  facet normal 0.768398 0 0.639972
    outer loop
      vertex 0.991672 0.993338 20
      vertex 0.612302 41.3102 20.4555
      vertex 0.612302 0.689841 20.4555
    endloop
  endfacet
  facet normal 0 -0.832222 0.554442
    outer loop
      vertex -23.9917 60.9933 50
      vertex 0.115041 41.885 21.3183
      vertex 25 60.9933 50
    endloop
  endfacet
  facet normal 0.000194485 -0.832147 0.554556
    outer loop
      vertex 0.115041 41.885 21.3183
      vertex -23.9917 60.9933 50
      vertex 0.115041 41.708 21.0527
    endloop
  endfacet
  facet normal 0 -0.832222 0.554442
    outer loop
      vertex 25 60.9933 50
      vertex 0.115041 41.885 21.3183
      vertex 25 41.885 21.3183
    endloop
  endfacet
  facet normal -0.000492921 -0.83238 0.554205
    outer loop
      vertex 0.991672 41.0067 20
      vertex 0.612302 41.3877 20.5719
      vertex 0.612302 41.3102 20.4555
    endloop
  endfacet
  facet normal 0 -0.832229 0.554432
    outer loop
      vertex 0.612302 41.3877 20.5719
      vertex 0.991672 41.0067 20
      vertex 25 41.3877 20.5719
    endloop
  endfacet
  facet normal 0 -0.832229 0.554432
    outer loop
      vertex 25 41.3877 20.5719
      vertex 0.991672 41.0067 20
      vertex 25 41.0067 20
    endloop
  endfacet
  facet normal 8.60643e-05 -0.951066 0.308987
    outer loop
      vertex 0.576511 0.4589 24.3661
      vertex 1.94147 1.81555 28.5415
      vertex 1.02781 1.14877 26.4894
    endloop
  endfacet
  facet normal 0 -0.951058 0.309013
    outer loop
      vertex 1.94147 1.81555 28.5415
      vertex 0.576511 0.4589 24.3661
      vertex 25 0.4589 24.3661
    endloop
  endfacet
  facet normal 0 -0.951058 0.309013
    outer loop
      vertex 1.94147 1.81555 28.5415
      vertex 25 0.4589 24.3661
      vertex 25 1.81555 28.5415
    endloop
  endfacet
  facet normal 2.59854e-05 -0.994522 0.104525
    outer loop
      vertex 0.115041 0.135356 21.2878
      vertex 0.576511 0.4589 24.3661
      vertex 0.115041 0.230714 22.1951
    endloop
  endfacet
  facet normal 0 -0.994522 0.104529
    outer loop
      vertex 0.576511 0.4589 24.3661
      vertex 0.115041 0.135356 21.2878
      vertex 25 0.135356 21.2878
    endloop
  endfacet
  facet normal 0 -0.994522 0.104529
    outer loop
      vertex 0.576511 0.4589 24.3661
      vertex 25 0.135356 21.2878
      vertex 25 0.4589 24.3661
    endloop
  endfacet
  facet normal 0 -0.406749 0.91354
    outer loop
      vertex 14.8829 14.5106 39.9722
      vertex 25 10.5 38.1865
      vertex 25 14.5106 39.9722
    endloop
  endfacet
  facet normal 3.66509e-06 -0.406741 0.913543
    outer loop
      vertex 12.4585 12.7414 39.1845
      vertex 25 10.5 38.1865
      vertex 14.8829 14.5106 39.9722
    endloop
  endfacet
  facet normal 0 -0.406759 0.913536
    outer loop
      vertex 25 10.5 38.1865
      vertex 12.4585 12.7414 39.1845
      vertex 10.7301 10.5 38.1865
    endloop
  endfacet
  facet normal -0 0 1
    outer loop
      vertex 19.9055 21 40.885
      vertex 25 18.8049 40.885
      vertex 25 21 40.885
    endloop
  endfacet
  facet normal 0 0 1
    outer loop
      vertex 25 18.8049 40.885
      vertex 19.9055 21 40.885
      vertex 19.9055 18.8049 40.885
    endloop
  endfacet
  facet normal 0 -0.587787 0.809016
    outer loop
      vertex 10.7301 10.5 38.1865
      vertex 25 6.94826 35.606
      vertex 25 10.5 38.1865
    endloop
  endfacet
  facet normal 7.40247e-06 -0.587767 0.80903
    outer loop
      vertex 8.65651 8.85223 36.9894
      vertex 25 6.94826 35.606
      vertex 10.7301 10.5 38.1865
    endloop
  endfacet
  facet normal 0 -0.587809 0.809
    outer loop
      vertex 25 6.94826 35.606
      vertex 8.65651 8.85223 36.9894
      vertex 7.12018 6.94826 35.606
    endloop
  endfacet
  facet normal -5.39421e-05 -0.743115 0.669164
    outer loop
      vertex 4.15284 4.01064 32.3435
      vertex 7.12018 6.94826 35.606
      vertex 5.39396 5.54876 34.0517
    endloop
  endfacet
  facet normal 0 -0.743139 0.669137
    outer loop
      vertex 7.12018 6.94826 35.606
      vertex 4.15284 4.01064 32.3435
      vertex 25 4.01064 32.3435
    endloop
  endfacet
  facet normal 0 -0.743139 0.669137
    outer loop
      vertex 7.12018 6.94826 35.606
      vertex 25 4.01064 32.3435
      vertex 25 6.94826 35.606
    endloop
  endfacet
  facet normal -2.36495e-05 -0.866019 0.500011
    outer loop
      vertex 1.94147 1.81555 28.5415
      vertex 4.15284 4.01064 32.3435
      vertex 2.81347 2.9463 30.5
    endloop
  endfacet
  facet normal 0 -0.866025 0.500001
    outer loop
      vertex 4.15284 4.01064 32.3435
      vertex 1.94147 1.81555 28.5415
      vertex 25 1.81555 28.5415
    endloop
  endfacet
  facet normal 0 -0.866025 0.500001
    outer loop
      vertex 4.15284 4.01064 32.3435
      vertex 25 1.81555 28.5415
      vertex 25 4.01064 32.3435
    endloop
  endfacet
  facet normal 0 -0.207916 0.978147
    outer loop
      vertex 19.9055 18.8049 40.885
      vertex 25 14.5106 39.9722
      vertex 25 18.8049 40.885
    endloop
  endfacet
  facet normal -7.60071e-06 -0.207924 0.978145
    outer loop
      vertex 16.6339 17.1872 40.5411
      vertex 25 14.5106 39.9722
      vertex 19.9055 18.8049 40.885
    endloop
  endfacet
  facet normal 0 -0.207902 0.97815
    outer loop
      vertex 25 14.5106 39.9722
      vertex 16.6339 17.1872 40.5411
      vertex 14.8829 14.5106 39.9722
    endloop
  endfacet
  facet normal 0 -1 0
    outer loop
      vertex 25 21 40.885
      vertex 21 21 41
      vertex 19.9055 21 40.885
    endloop
  endfacet
  facet normal 0 -1 0
    outer loop
      vertex 21 21 41
      vertex 25 21 40.885
      vertex 25 21 41
    endloop
  endfacet
  facet normal 0 0.309003 0.951061
    outer loop
      vertex 25 29.5415 39.1845
      vertex 16.6339 25.3661 40.5411
      vertex 25 25.3661 40.5411
    endloop
  endfacet
  facet normal 0 0.309003 0.951061
    outer loop
      vertex 16.6339 25.3661 40.5411
      vertex 25 29.5415 39.1845
      vertex 12.4585 29.5415 39.1845
    endloop
  endfacet
  facet normal 0 0.104529 0.994522
    outer loop
      vertex 25 25.3661 40.5411
      vertex 21 21 41
      vertex 25 21 41
    endloop
  endfacet
  facet normal 0 0.104529 0.994522
    outer loop
      vertex 21 21 41
      vertex 25 25.3661 40.5411
      vertex 16.6339 25.3661 40.5411
    endloop
  endfacet
  facet normal 0 0.91354 0.406749
    outer loop
      vertex 25 40.9722 26.4894
      vertex 2.81347 39.1865 30.5
      vertex 25 39.1865 30.5
    endloop
  endfacet
  facet normal 0 0.91354 0.406749
    outer loop
      vertex 2.81347 39.1865 30.5
      vertex 25 40.9722 26.4894
      vertex 1.02781 40.9722 26.4894
    endloop
  endfacet
  facet normal 0 1 -0
    outer loop
      vertex 25 41.885 21.3183
      vertex 0.115041 41.885 22.1951
      vertex 25 41.885 22.1951
    endloop
  endfacet
  facet normal 0 1 0
    outer loop
      vertex 0.115041 41.885 22.1951
      vertex 25 41.885 21.3183
      vertex 0.115041 41.885 21.3183
    endloop
  endfacet
  facet normal 0 0.809013 0.587791
    outer loop
      vertex 25 39.1865 30.5
      vertex 5.39396 36.606 34.0517
      vertex 25 36.606 34.0517
    endloop
  endfacet
  facet normal 0 0.809013 0.587791
    outer loop
      vertex 5.39396 36.606 34.0517
      vertex 25 39.1865 30.5
      vertex 2.81347 39.1865 30.5
    endloop
  endfacet
  facet normal 0 0.669147 0.74313
    outer loop
      vertex 25 36.606 34.0517
      vertex 8.65651 33.3435 36.9894
      vertex 25 33.3435 36.9894
    endloop
  endfacet
  facet normal 0 0.669147 0.74313
    outer loop
      vertex 8.65651 33.3435 36.9894
      vertex 25 36.606 34.0517
      vertex 5.39396 36.606 34.0517
    endloop
  endfacet
  facet normal 0 0.500002 0.866024
    outer loop
      vertex 25 33.3435 36.9894
      vertex 12.4585 29.5415 39.1845
      vertex 25 29.5415 39.1845
    endloop
  endfacet
  facet normal 0 0.500002 0.866024
    outer loop
      vertex 12.4585 29.5415 39.1845
      vertex 25 33.3435 36.9894
      vertex 8.65651 33.3435 36.9894
    endloop
  endfacet
  facet normal 0 0.978147 0.207916
    outer loop
      vertex 25 41.885 22.1951
      vertex 1.02781 40.9722 26.4894
      vertex 25 40.9722 26.4894
    endloop
  endfacet
  facet normal 0 0.978147 0.207916
    outer loop
      vertex 1.02781 40.9722 26.4894
      vertex 25 41.885 22.1951
      vertex 0.115041 41.885 22.1951
    endloop
  endfacet
  facet normal -0.309003 0 0.951061
    outer loop
      vertex 12.4585 29.5415 39.1845
      vertex 16.6339 17.1872 40.5411
      vertex 16.6339 25.3661 40.5411
    endloop
  endfacet
  facet normal -0.309003 0 0.951061
    outer loop
      vertex 12.4585 12.7414 39.1845
      vertex 16.6339 17.1872 40.5411
      vertex 12.4585 29.5415 39.1845
    endloop
  endfacet
  facet normal -0.309008 6.04073e-06 0.951059
    outer loop
      vertex 16.6339 17.1872 40.5411
      vertex 12.4585 12.7414 39.1845
      vertex 14.8829 14.5106 39.9722
    endloop
  endfacet
  facet normal -0.104496 3.42456e-05 0.994525
    outer loop
      vertex 16.6339 25.3661 40.5411
      vertex 19.9055 21 40.885
      vertex 21 21 41
    endloop
  endfacet
  facet normal -0.104541 0 0.994521
    outer loop
      vertex 16.6339 17.1872 40.5411
      vertex 19.9055 21 40.885
      vertex 16.6339 25.3661 40.5411
    endloop
  endfacet
  facet normal -0.104541 0 0.994521
    outer loop
      vertex 19.9055 21 40.885
      vertex 16.6339 17.1872 40.5411
      vertex 19.9055 18.8049 40.885
    endloop
  endfacet
  facet normal -0.913543 0 0.406742
    outer loop
      vertex 1.02781 40.9722 26.4894
      vertex 2.81347 2.9463 30.5
      vertex 2.81347 39.1865 30.5
    endloop
  endfacet
  facet normal -0.913543 0 0.406742
    outer loop
      vertex 1.02781 1.14877 26.4894
      vertex 2.81347 2.9463 30.5
      vertex 1.02781 40.9722 26.4894
    endloop
  endfacet
  facet normal -0.913547 2.52942e-05 0.406732
    outer loop
      vertex 2.81347 2.9463 30.5
      vertex 1.02781 1.14877 26.4894
      vertex 1.94147 1.81555 28.5415
    endloop
  endfacet
  facet normal -1 0 0
    outer loop
      vertex 0.115041 41.708 21.0527
      vertex 0.115041 41.885 22.1951
      vertex 0.115041 41.885 21.3183
    endloop
  endfacet
  facet normal -1 0 0
    outer loop
      vertex 0.115041 0.230714 22.1951
      vertex 0.115041 41.708 21.0527
      vertex 0.115041 0.292033 21.0527
    endloop
  endfacet
  facet normal -1 0 0
    outer loop
      vertex 0.115041 41.708 21.0527
      vertex 0.115041 0.230714 22.1951
      vertex 0.115041 41.885 22.1951
    endloop
  endfacet
  facet normal -1 0 -0
    outer loop
      vertex 0.115041 0.230714 22.1951
      vertex 0.115041 0.292033 21.0527
      vertex 0.115041 0.135356 21.2878
    endloop
  endfacet
  facet normal -0.809014 0 0.58779
    outer loop
      vertex 2.81347 39.1865 30.5
      vertex 5.39396 5.54876 34.0517
      vertex 5.39396 36.606 34.0517
    endloop
  endfacet
  facet normal -0.809014 0 0.58779
    outer loop
      vertex 2.81347 2.9463 30.5
      vertex 5.39396 5.54876 34.0517
      vertex 2.81347 39.1865 30.5
    endloop
  endfacet
  facet normal -0.80904 7.38619e-05 0.587754
    outer loop
      vertex 5.39396 5.54876 34.0517
      vertex 2.81347 2.9463 30.5
      vertex 4.15284 4.01064 32.3435
    endloop
  endfacet
  facet normal -0.669142 0 0.743135
    outer loop
      vertex 5.39396 5.54876 34.0517
      vertex 8.65651 8.85223 36.9894
      vertex 8.65651 33.3435 36.9894
    endloop
  endfacet
  facet normal -0.669142 0 0.743135
    outer loop
      vertex 5.39396 5.54876 34.0517
      vertex 8.65651 33.3435 36.9894
      vertex 5.39396 36.606 34.0517
    endloop
  endfacet
  facet normal -0.669092 -8.82921e-05 0.743179
    outer loop
      vertex 8.65651 8.85223 36.9894
      vertex 5.39396 5.54876 34.0517
      vertex 7.12018 6.94826 35.606
    endloop
  endfacet
  facet normal -0.500003 0 0.866023
    outer loop
      vertex 8.65651 33.3435 36.9894
      vertex 12.4585 12.7414 39.1845
      vertex 12.4585 29.5415 39.1845
    endloop
  endfacet
  facet normal -0.500003 0 0.866023
    outer loop
      vertex 12.4585 12.7414 39.1845
      vertex 8.65651 33.3435 36.9894
      vertex 8.65651 8.85223 36.9894
    endloop
  endfacet
  facet normal -0.499865 -0.000180551 0.866103
    outer loop
      vertex 12.4585 12.7414 39.1845
      vertex 8.65651 8.85223 36.9894
      vertex 10.7301 10.5 38.1865
    endloop
  endfacet
  facet normal -0.978148 0 0.207909
    outer loop
      vertex 0.115041 41.885 22.1951
      vertex 1.02781 1.14877 26.4894
      vertex 1.02781 40.9722 26.4894
    endloop
  endfacet
  facet normal -0.978148 0 0.207909
    outer loop
      vertex 0.115041 0.230714 22.1951
      vertex 1.02781 1.14877 26.4894
      vertex 0.115041 41.885 22.1951
    endloop
  endfacet
  facet normal -0.978145 -6.67305e-05 0.207923
    outer loop
      vertex 1.02781 1.14877 26.4894
      vertex 0.115041 0.230714 22.1951
      vertex 0.576511 0.4589 24.3661
    endloop
  endfacet
  facet normal 0 0.866026 -0.499999
    outer loop
      vertex 25 2.27232 28.3281
      vertex 4.55396 4.41515 32.0396
      vertex 25 4.41515 32.0396
    endloop
  endfacet
  facet normal 0 0.866026 -0.499999
    outer loop
      vertex 2.39525 2.27232 28.3281
      vertex 4.55396 4.41515 32.0396
      vertex 25 2.27232 28.3281
    endloop
  endfacet
  facet normal -1.04078e-05 0.866029 -0.499994
    outer loop
      vertex 4.55396 4.41515 32.0396
      vertex 2.39525 2.27232 28.3281
      vertex 3.24648 3.37615 30.24
    endloop
  endfacet
  facet normal 0 0.951056 -0.309018
    outer loop
      vertex 25 0.947974 24.2522
      vertex 2.39525 2.27232 28.3281
      vertex 25 2.27232 28.3281
    endloop
  endfacet
  facet normal 0 0.951056 -0.309018
    outer loop
      vertex 1.06278 0.947974 24.2522
      vertex 2.39525 2.27232 28.3281
      vertex 25 0.947974 24.2522
    endloop
  endfacet
  facet normal 5.81183e-05 0.951051 -0.309035
    outer loop
      vertex 2.39525 2.27232 28.3281
      vertex 1.06278 0.947974 24.2522
      vertex 1.50334 1.62142 26.3248
    endloop
  endfacet
  facet normal 0 0.994522 -0.104527
    outer loop
      vertex 25 0.568132 20.6382
      vertex 1.06278 0.947974 24.2522
      vertex 25 0.947974 24.2522
    endloop
  endfacet
  facet normal 0 0.994522 -0.104527
    outer loop
      vertex 0.612302 0.568132 20.6382
      vertex 1.06278 0.947974 24.2522
      vertex 25 0.568132 20.6382
    endloop
  endfacet
  facet normal 1.15109e-05 0.994522 -0.104529
    outer loop
      vertex 1.06278 0.947974 24.2522
      vertex 0.612302 0.568132 20.6382
      vertex 0.612302 0.725221 22.1328
    endloop
  endfacet
  facet normal 0 0.406745 -0.913542
    outer loop
      vertex 25 10.75 37.7435
      vertex 15.0286 14.6652 39.4867
      vertex 25 14.6652 39.4867
    endloop
  endfacet
  facet normal -2.28449e-06 0.40674 -0.913544
    outer loop
      vertex 25 10.75 37.7435
      vertex 12.6619 12.938 38.7177
      vertex 15.0286 14.6652 39.4867
    endloop
  endfacet
  facet normal 0 0.40675 -0.913539
    outer loop
      vertex 12.6619 12.938 38.7177
      vertex 25 10.75 37.7435
      vertex 10.9746 10.75 37.7435
    endloop
  endfacet
  facet normal 0 0 -1
    outer loop
      vertex 19.9315 18.8572 40.3777
      vertex 25 21 40.3777
      vertex 25 18.8572 40.3777
    endloop
  endfacet
  facet normal -0 0 -1
    outer loop
      vertex 25 21 40.3777
      vertex 19.9315 18.8572 40.3777
      vertex 19.9315 21 40.3777
    endloop
  endfacet
  facet normal 0 0.587777 -0.809023
    outer loop
      vertex 25 7.28282 35.2245
      vertex 10.9746 10.75 37.7435
      vertex 25 10.75 37.7435
    endloop
  endfacet
  facet normal 4.95074e-06 0.58779 -0.809013
    outer loop
      vertex 25 7.28282 35.2245
      vertex 8.9504 9.14146 36.5748
      vertex 10.9746 10.75 37.7435
    endloop
  endfacet
  facet normal 0 0.587762 -0.809034
    outer loop
      vertex 8.9504 9.14146 36.5748
      vertex 25 7.28282 35.2245
      vertex 7.45065 7.28282 35.2245
    endloop
  endfacet
  facet normal 0 0.743148 -0.669127
    outer loop
      vertex 25 4.41515 32.0396
      vertex 7.45065 7.28282 35.2245
      vertex 25 7.28282 35.2245
    endloop
  endfacet
  facet normal 0 0.743148 -0.669127
    outer loop
      vertex 4.55396 4.41515 32.0396
      vertex 7.45065 7.28282 35.2245
      vertex 25 4.41515 32.0396
    endloop
  endfacet
  facet normal 6.56129e-07 0.743148 -0.669127
    outer loop
      vertex 7.45065 7.28282 35.2245
      vertex 4.55396 4.41515 32.0396
      vertex 5.76553 5.91665 33.7072
    endloop
  endfacet
  facet normal 0 0.207903 -0.978149
    outer loop
      vertex 25 14.6652 39.4867
      vertex 19.9315 18.8572 40.3777
      vertex 25 18.8572 40.3777
    endloop
  endfacet
  facet normal 8.55964e-06 0.207913 -0.978147
    outer loop
      vertex 25 14.6652 39.4867
      vertex 16.7378 17.278 40.042
      vertex 19.9315 18.8572 40.3777
    endloop
  endfacet
  facet normal 0 0.207887 -0.978153
    outer loop
      vertex 16.7378 17.278 40.042
      vertex 25 14.6652 39.4867
      vertex 15.0286 14.6652 39.4867
    endloop
  endfacet
  facet normal 0 1 -0
    outer loop
      vertex 25 21 40.3777
      vertex 21 21 40.49
      vertex 25 21 40.49
    endloop
  endfacet
  facet normal 0 1 0
    outer loop
      vertex 21 21 40.49
      vertex 25 21 40.3777
      vertex 19.9315 21 40.3777
    endloop
  endfacet
  facet normal 0 -0.500011 -0.866019
    outer loop
      vertex 12.6619 29.3381 38.7177
      vertex 25 33.0496 36.5748
      vertex 25 29.3381 38.7177
    endloop
  endfacet
  facet normal -0 -0.500011 -0.866019
    outer loop
      vertex 25 33.0496 36.5748
      vertex 12.6619 29.3381 38.7177
      vertex 8.9504 33.0496 36.5748
    endloop
  endfacet
  facet normal 0 -0.309009 -0.951059
    outer loop
      vertex 16.7378 25.2622 40.042
      vertex 25 29.3381 38.7177
      vertex 25 25.2622 40.042
    endloop
  endfacet
  facet normal -0 -0.309009 -0.951059
    outer loop
      vertex 25 29.3381 38.7177
      vertex 16.7378 25.2622 40.042
      vertex 12.6619 29.3381 38.7177
    endloop
  endfacet
  facet normal 0 -0.104534 -0.994521
    outer loop
      vertex 21 21 40.49
      vertex 25 25.2622 40.042
      vertex 25 21 40.49
    endloop
  endfacet
  facet normal -0 -0.104534 -0.994521
    outer loop
      vertex 25 25.2622 40.042
      vertex 21 21 40.49
      vertex 16.7378 25.2622 40.042
    endloop
  endfacet
  facet normal -0 -0.913542 -0.406745
    outer loop
      vertex 25 40.4967 26.3248
      vertex 3.24648 38.7535 30.24
      vertex 1.50334 40.4967 26.3248
    endloop
  endfacet
  facet normal 0 -0.913542 -0.406745
    outer loop
      vertex 3.24648 38.7535 30.24
      vertex 25 40.4967 26.3248
      vertex 25 38.7535 30.24
    endloop
  endfacet
  facet normal 0 -1 0
    outer loop
      vertex 0.612302 41.3877 20.5719
      vertex 25 41.3877 22.1328
      vertex 0.612302 41.3877 22.1328
    endloop
  endfacet
  facet normal 0 -1 -0
    outer loop
      vertex 25 41.3877 22.1328
      vertex 0.612302 41.3877 20.5719
      vertex 25 41.3877 20.5719
    endloop
  endfacet
  facet normal -0 -0.809025 -0.587775
    outer loop
      vertex 25 38.7535 30.24
      vertex 5.76553 36.2345 33.7072
      vertex 3.24648 38.7535 30.24
    endloop
  endfacet
  facet normal 0 -0.809025 -0.587775
    outer loop
      vertex 5.76553 36.2345 33.7072
      vertex 25 38.7535 30.24
      vertex 25 36.2345 33.7072
    endloop
  endfacet
  facet normal 0 -0.669118 -0.743156
    outer loop
      vertex 8.9504 33.0496 36.5748
      vertex 25 36.2345 33.7072
      vertex 25 33.0496 36.5748
    endloop
  endfacet
  facet normal -0 -0.669118 -0.743156
    outer loop
      vertex 25 36.2345 33.7072
      vertex 8.9504 33.0496 36.5748
      vertex 5.76553 36.2345 33.7072
    endloop
  endfacet
  facet normal -0 -0.978149 -0.207903
    outer loop
      vertex 25 41.3877 22.1328
      vertex 1.50334 40.4967 26.3248
      vertex 0.612302 41.3877 22.1328
    endloop
  endfacet
  facet normal 0 -0.978149 -0.207903
    outer loop
      vertex 1.50334 40.4967 26.3248
      vertex 25 41.3877 22.1328
      vertex 25 40.4967 26.3248
    endloop
  endfacet
  facet normal 0.5 1.4206e-05 -0.866025
    outer loop
      vertex 8.9504 9.14146 36.5748
      vertex 12.6619 12.938 38.7177
      vertex 10.9746 10.75 37.7435
    endloop
  endfacet
  facet normal 0.500011 0 -0.866019
    outer loop
      vertex 8.9504 33.0496 36.5748
      vertex 12.6619 12.938 38.7177
      vertex 8.9504 9.14146 36.5748
    endloop
  endfacet
  facet normal 0.500011 0 -0.866019
    outer loop
      vertex 12.6619 12.938 38.7177
      vertex 8.9504 33.0496 36.5748
      vertex 12.6619 29.3381 38.7177
    endloop
  endfacet
  facet normal 0.30905 -4.30527e-05 -0.951046
    outer loop
      vertex 12.6619 12.938 38.7177
      vertex 16.7378 17.278 40.042
      vertex 15.0286 14.6652 39.4867
    endloop
  endfacet
  facet normal 0.309009 0 -0.951059
    outer loop
      vertex 12.6619 29.3381 38.7177
      vertex 16.7378 17.278 40.042
      vertex 12.6619 12.938 38.7177
    endloop
  endfacet
  facet normal 0.309009 0 -0.951059
    outer loop
      vertex 16.7378 17.278 40.042
      vertex 12.6619 29.3381 38.7177
      vertex 16.7378 25.2622 40.042
    endloop
  endfacet
  facet normal 0.104537 0 -0.994521
    outer loop
      vertex 19.9315 18.8572 40.3777
      vertex 16.7378 17.278 40.042
      vertex 19.9315 21 40.3777
    endloop
  endfacet
  facet normal 0.104525 -9.37709e-06 -0.994522
    outer loop
      vertex 19.9315 21 40.3777
      vertex 16.7378 25.2622 40.042
      vertex 21 21 40.49
    endloop
  endfacet
  facet normal 0.104537 0 -0.994521
    outer loop
      vertex 16.7378 25.2622 40.042
      vertex 19.9315 21 40.3777
      vertex 16.7378 17.278 40.042
    endloop
  endfacet
  facet normal 0.913547 0 -0.406733
    outer loop
      vertex 3.24648 3.37615 30.24
      vertex 1.50334 40.4967 26.3248
      vertex 3.24648 38.7535 30.24
    endloop
  endfacet
  facet normal 0.913551 -2.48786e-05 -0.406724
    outer loop
      vertex 1.50334 1.62142 26.3248
      vertex 3.24648 3.37615 30.24
      vertex 2.39525 2.27232 28.3281
    endloop
  endfacet
  facet normal 0.913547 0 -0.406733
    outer loop
      vertex 3.24648 3.37615 30.24
      vertex 1.50334 1.62142 26.3248
      vertex 1.50334 40.4967 26.3248
    endloop
  endfacet
  facet normal 1 0 0
    outer loop
      vertex 0.612302 41.3877 22.1328
      vertex 0.612302 41.3102 20.4555
      vertex 0.612302 41.3877 20.5719
    endloop
  endfacet
  facet normal 1 -0 0
    outer loop
      vertex 0.612302 0.725221 22.1328
      vertex 0.612302 41.3102 20.4555
      vertex 0.612302 41.3877 22.1328
    endloop
  endfacet
  facet normal 1 0 0
    outer loop
      vertex 0.612302 0.725221 22.1328
      vertex 0.612302 0.689841 20.4555
      vertex 0.612302 41.3102 20.4555
    endloop
  endfacet
  facet normal 1 0 -0
    outer loop
      vertex 0.612302 0.689841 20.4555
      vertex 0.612302 0.725221 22.1328
      vertex 0.612302 0.568132 20.6382
    endloop
  endfacet
  facet normal 0.809019 0 -0.587782
    outer loop
      vertex 5.76553 5.91665 33.7072
      vertex 3.24648 38.7535 30.24
      vertex 5.76553 36.2345 33.7072
    endloop
  endfacet
  facet normal 0.809015 1.02443e-05 -0.587787
    outer loop
      vertex 3.24648 3.37615 30.24
      vertex 5.76553 5.91665 33.7072
      vertex 4.55396 4.41515 32.0396
    endloop
  endfacet
  facet normal 0.809019 0 -0.587782
    outer loop
      vertex 5.76553 5.91665 33.7072
      vertex 3.24648 3.37615 30.24
      vertex 3.24648 38.7535 30.24
    endloop
  endfacet
  facet normal 0.66918 -0.000105065 -0.7431
    outer loop
      vertex 5.76553 5.91665 33.7072
      vertex 8.9504 9.14146 36.5748
      vertex 7.45065 7.28282 35.2245
    endloop
  endfacet
  facet normal 0.669122 0 -0.743153
    outer loop
      vertex 8.9504 9.14146 36.5748
      vertex 5.76553 5.91665 33.7072
      vertex 8.9504 33.0496 36.5748
    endloop
  endfacet
  facet normal 0.669122 0 -0.743153
    outer loop
      vertex 8.9504 33.0496 36.5748
      vertex 5.76553 5.91665 33.7072
      vertex 5.76553 36.2345 33.7072
    endloop
  endfacet
  facet normal 0.978148 0 -0.207912
    outer loop
      vertex 1.50334 1.62142 26.3248
      vertex 0.612302 41.3877 22.1328
      vertex 1.50334 40.4967 26.3248
    endloop
  endfacet
  facet normal 0.97815 -6.29676e-05 -0.207899
    outer loop
      vertex 0.612302 0.725221 22.1328
      vertex 1.50334 1.62142 26.3248
      vertex 1.06278 0.947974 24.2522
    endloop
  endfacet
  facet normal 0.978148 0 -0.207912
    outer loop
      vertex 1.50334 1.62142 26.3248
      vertex 0.612302 0.725221 22.1328
      vertex 0.612302 41.3877 22.1328
    endloop
  endfacet
  facet normal 1 0 0
    outer loop
      vertex 25 41.885 22.1951
      vertex 25 41.3877 22.1328
      vertex 25 41.885 21.3183
    endloop
  endfacet
  facet normal 1 -0 0
    outer loop
      vertex 25 40.4967 26.3248
      vertex 25 41.885 22.1951
      vertex 25 40.9722 26.4894
    endloop
  endfacet
  facet normal 1 0 0
    outer loop
      vertex 25 41.885 22.1951
      vertex 25 40.4967 26.3248
      vertex 25 41.3877 22.1328
    endloop
  endfacet
  facet normal 1 -0 0
    outer loop
      vertex 25 38.7535 30.24
      vertex 25 40.9722 26.4894
      vertex 25 39.1865 30.5
    endloop
  endfacet
  facet normal 1 0 0
    outer loop
      vertex 25 40.9722 26.4894
      vertex 25 38.7535 30.24
      vertex 25 40.4967 26.3248
    endloop
  endfacet
  facet normal 1 -0 0
    outer loop
      vertex 25 36.2345 33.7072
      vertex 25 39.1865 30.5
      vertex 25 36.606 34.0517
    endloop
  endfacet
  facet normal 1 0 0
    outer loop
      vertex 25 39.1865 30.5
      vertex 25 36.2345 33.7072
      vertex 25 38.7535 30.24
    endloop
  endfacet
  facet normal 1 -0 0
    outer loop
      vertex 25 33.0496 36.5748
      vertex 25 36.606 34.0517
      vertex 25 33.3435 36.9894
    endloop
  endfacet
  facet normal 1 0 0
    outer loop
      vertex 25 36.606 34.0517
      vertex 25 33.0496 36.5748
      vertex 25 36.2345 33.7072
    endloop
  endfacet
  facet normal 1 -0 0
    outer loop
      vertex 25 29.3381 38.7177
      vertex 25 33.3435 36.9894
      vertex 25 29.5415 39.1845
    endloop
  endfacet
  facet normal 1 0 0
    outer loop
      vertex 25 33.3435 36.9894
      vertex 25 29.3381 38.7177
      vertex 25 33.0496 36.5748
    endloop
  endfacet
  facet normal 1 -0 0
    outer loop
      vertex 25 25.2622 40.042
      vertex 25 29.5415 39.1845
      vertex 25 25.3661 40.5411
    endloop
  endfacet
  facet normal 1 0 0
    outer loop
      vertex 25 29.5415 39.1845
      vertex 25 25.2622 40.042
      vertex 25 29.3381 38.7177
    endloop
  endfacet
  facet normal 1 -0 0
    outer loop
      vertex 25 21 40.885
      vertex 25 25.3661 40.5411
      vertex 25 21 41
    endloop
  endfacet
  facet normal 1 0 0
    outer loop
      vertex 25 25.3661 40.5411
      vertex 25 21 40.885
      vertex 25 25.2622 40.042
    endloop
  endfacet
  facet normal 1 0 0
    outer loop
      vertex 25 21 40.885
      vertex 25 21 40.49
      vertex 25 25.2622 40.042
    endloop
  endfacet
  facet normal 1 0 0
    outer loop
      vertex 25 18.8572 40.3777
      vertex 25 21 40.49
      vertex 25 21 40.885
    endloop
  endfacet
  facet normal 1 0 0
    outer loop
      vertex 25 21 40.49
      vertex 25 18.8572 40.3777
      vertex 25 21 40.3777
    endloop
  endfacet
  facet normal 1 -0 0
    outer loop
      vertex 25 18.8049 40.885
      vertex 25 18.8572 40.3777
      vertex 25 21 40.885
    endloop
  endfacet
  facet normal 1 0 0
    outer loop
      vertex 25 18.8049 40.885
      vertex 25 14.6652 39.4867
      vertex 25 18.8572 40.3777
    endloop
  endfacet
  facet normal 1 -0 0
    outer loop
      vertex 25 14.5106 39.9722
      vertex 25 14.6652 39.4867
      vertex 25 18.8049 40.885
    endloop
  endfacet
  facet normal 1 0 0
    outer loop
      vertex 25 10.5 38.1865
      vertex 25 14.6652 39.4867
      vertex 25 14.5106 39.9722
    endloop
  endfacet
  facet normal 1 0 0
    outer loop
      vertex 25 14.6652 39.4867
      vertex 25 10.5 38.1865
      vertex 25 10.75 37.7435
    endloop
  endfacet
  facet normal 1 0 0
    outer loop
      vertex 25 6.94826 35.606
      vertex 25 10.75 37.7435
      vertex 25 10.5 38.1865
    endloop
  endfacet
  facet normal 1 0 0
    outer loop
      vertex 25 10.75 37.7435
      vertex 25 6.94826 35.606
      vertex 25 7.28282 35.2245
    endloop
  endfacet
  facet normal 1 0 0
    outer loop
      vertex 25 4.01064 32.3435
      vertex 25 7.28282 35.2245
      vertex 25 6.94826 35.606
    endloop
  endfacet
  facet normal 1 0 0
    outer loop
      vertex 25 7.28282 35.2245
      vertex 25 4.01064 32.3435
      vertex 25 4.41515 32.0396
    endloop
  endfacet
  facet normal 1 0 0
    outer loop
      vertex 25 1.81555 28.5415
      vertex 25 4.41515 32.0396
      vertex 25 4.01064 32.3435
    endloop
  endfacet
  facet normal 1 0 0
    outer loop
      vertex 25 4.41515 32.0396
      vertex 25 1.81555 28.5415
      vertex 25 2.27232 28.3281
    endloop
  endfacet
  facet normal 1 0 0
    outer loop
      vertex 25 0.4589 24.3661
      vertex 25 2.27232 28.3281
      vertex 25 1.81555 28.5415
    endloop
  endfacet
  facet normal 1 0 0
    outer loop
      vertex 25 0.135356 21.2878
      vertex 25 0.947974 24.2522
      vertex 25 0.4589 24.3661
    endloop
  endfacet
  facet normal 1 0 0
    outer loop
      vertex 25 2.27232 28.3281
      vertex 25 0.4589 24.3661
      vertex 25 0.947974 24.2522
    endloop
  endfacet
  facet normal 1 0 0
    outer loop
      vertex 25 41.885 21.3183
      vertex 25 62 50
      vertex 25 60.9933 50
    endloop
  endfacet
  facet normal 1 0 0
    outer loop
      vertex 25 62 50
      vertex 25 41.885 21.3183
      vertex 25 42 20
    endloop
  endfacet
  facet normal 1 -0 0
    outer loop
      vertex 25 41.3877 20.5719
      vertex 25 42 20
      vertex 25 41.885 21.3183
    endloop
  endfacet
  facet normal 1 0 0
    outer loop
      vertex 25 41.3877 20.5719
      vertex 25 41.885 21.3183
      vertex 25 41.3877 22.1328
    endloop
  endfacet
  facet normal 1 0 0
    outer loop
      vertex 25 41.0067 20
      vertex 25 42 20
      vertex 25 41.3877 20.5719
    endloop
  endfacet
  facet normal 1 0 0
    outer loop
      vertex 25 42 20
      vertex 25 41.0067 20
      vertex 25 42 0
    endloop
  endfacet
  facet normal 1 0 0
    outer loop
      vertex 25 41 0
      vertex 25 41.0067 20
      vertex 25 41 20
    endloop
  endfacet
  facet normal 1 0 0
    outer loop
      vertex 25 41.0067 20
      vertex 25 41 0
      vertex 25 42 0
    endloop
  endfacet
  facet normal 1 -0 0
    outer loop
      vertex 25 0.993338 20
      vertex 25 1 0
      vertex 25 1 20
    endloop
  endfacet
  facet normal 1 0 0
    outer loop
      vertex 25 0 20
      vertex 25 0.993338 20
      vertex 25 0.568132 20.6382
    endloop
  endfacet
  facet normal 1 0 0
    outer loop
      vertex 25 0.947974 24.2522
      vertex 25 0.135356 21.2878
      vertex 25 0.568132 20.6382
    endloop
  endfacet
  facet normal 1 0 0
    outer loop
      vertex 25 0 20
      vertex 25 0.568132 20.6382
      vertex 25 0.135356 21.2878
    endloop
  endfacet
  facet normal 1 0 0
    outer loop
      vertex 25 0.993338 20
      vertex 25 0 20
      vertex 25 1 0
    endloop
  endfacet
  facet normal 1 0 0
    outer loop
      vertex 25 1 0
      vertex 25 0 20
      vertex 25 0 0
    endloop
  endfacet
  facet normal 1 -0 0
    outer loop
      vertex 25 -20 50
      vertex 25 0.135356 21.2878
      vertex 25 -18.9933 50
    endloop
  endfacet
  facet normal 1 0 0
    outer loop
      vertex 25 0.135356 21.2878
      vertex 25 -20 50
      vertex 25 0 20
    endloop
  endfacet
endsolid OpenSCAD_Model
